<?xml version="1.0" encoding="UTF-8" standalone="no"?>
<!-- Generator: Adobe Illustrator 16.0.0, SVG Export Plug-In . SVG Version: 6.00 Build 0)  -->

<svg
   xmlns:dc="http://purl.org/dc/elements/1.1/"
   xmlns:cc="http://creativecommons.org/ns#"
   xmlns:rdf="http://www.w3.org/1999/02/22-rdf-syntax-ns#"
   xmlns:svg="http://www.w3.org/2000/svg"
   xmlns="http://www.w3.org/2000/svg"
   xmlns:sodipodi="http://sodipodi.sourceforge.net/DTD/sodipodi-0.dtd"
   xmlns:inkscape="http://www.inkscape.org/namespaces/inkscape"
   version="1.1"
   id="Layer_1"
   x="0px"
   y="0px"
   width="115.333px"
   height="114px"
   viewBox="0 0 115.333 114"
   enable-background="new 0 0 115.333 114"
   xml:space="preserve"
   sodipodi:docname="promview_logo_grey.svg"
   inkscape:version="0.92.4 (5da689c313, 2019-01-14)"
   inkscape:export-filename="C:\Users\EricM\Desktop\promview_32.png"
   inkscape:export-xdpi="26.639999"
   inkscape:export-ydpi="26.639999"><metadata
   id="metadata12"><rdf:RDF><cc:Work
       rdf:about=""><dc:format>image/svg+xml</dc:format><dc:type
         rdf:resource="http://purl.org/dc/dcmitype/StillImage" /><dc:title></dc:title></cc:Work></rdf:RDF></metadata><defs
   id="defs10"><filter
     style="color-interpolation-filters:sRGB;"
     inkscape:label="Invert"
     id="filter4591"><feColorMatrix
       type="hueRotate"
       values="180"
       result="color1"
       id="feColorMatrix4587" /><feColorMatrix
       values="-1 0 0 0 1 0 -1 0 0 1 0 0 -1 0 1 -0.21 -0.72 -0.07 2 0 "
       result="fbSourceGraphic"
       id="feColorMatrix4589" /><feColorMatrix
       result="fbSourceGraphicAlpha"
       in="fbSourceGraphic"
       values="0 0 0 -1 0 0 0 0 -1 0 0 0 0 -1 0 0 0 0 1 0"
       id="feColorMatrix4593" /><feColorMatrix
       id="feColorMatrix4595"
       type="hueRotate"
       values="180"
       result="color1"
       in="fbSourceGraphic" /><feColorMatrix
       id="feColorMatrix4597"
       values="-1 0 0 0 1 0 -1 0 0 1 0 0 -1 0 1 -0.21 -0.72 -0.07 2 0 "
       result="fbSourceGraphic" /><feColorMatrix
       result="fbSourceGraphicAlpha"
       in="fbSourceGraphic"
       values="0 0 0 -1 0 0 0 0 -1 0 0 0 0 -1 0 0 0 0 1 0"
       id="feColorMatrix4599" /><feColorMatrix
       id="feColorMatrix4601"
       type="hueRotate"
       values="180"
       result="color1"
       in="fbSourceGraphic" /><feColorMatrix
       id="feColorMatrix4603"
       values="-1 0 0 0 1 0 -1 0 0 1 0 0 -1 0 1 -0.21 -0.72 -0.07 2 0 "
       result="color2" /></filter></defs><sodipodi:namedview
   pagecolor="#ffffff"
   bordercolor="#666666"
   borderopacity="1"
   objecttolerance="10"
   gridtolerance="10"
   guidetolerance="10"
   inkscape:pageopacity="0"
   inkscape:pageshadow="2"
   inkscape:window-width="1469"
   inkscape:window-height="855"
   id="namedview8"
   showgrid="false"
   inkscape:zoom="2.0701754"
   inkscape:cx="-1.2657033"
   inkscape:cy="37.677966"
   inkscape:window-x="293"
   inkscape:window-y="38"
   inkscape:window-maximized="0"
   inkscape:current-layer="Layer_1"
   inkscape:snap-global="false" />
<ellipse
   style="fill:#ffdb01;fill-opacity:1;stroke:none;stroke-width:1.07623482;stroke-opacity:1"
   id="path4756"
   cx="56.6665"
   cy="56.813622"
   rx="56.6665"
   ry="56.146622" /><g
   id="g833"
   transform="matrix(0.02528357,0,0,-0.02528357,-126.01636,85.359691)"
   style="fill:#b8231f;fill-opacity:1;stroke:none;stroke-opacity:1;filter:url(#filter4591)" /><g
   id="Layer_2">
</g>
<g
   id="g5"
   style="fill:#4d4d4f;fill-opacity:1">
	<path
   fill="#EEEEEE"
   d="M56.667,0.667C25.372,0.667,0,26.036,0,57.332c0,31.295,25.372,56.666,56.667,56.666   s56.666-25.371,56.666-56.666C113.333,26.036,87.961,0.667,56.667,0.667z M56.667,106.722c-8.904,0-16.123-5.948-16.123-13.283   H72.79C72.79,100.773,65.571,106.722,56.667,106.722z M83.297,89.04H30.034v-9.658h53.264V89.04z M83.106,74.411h-52.92   c-0.176-0.203-0.356-0.403-0.526-0.609c-5.452-6.62-6.736-10.076-7.983-13.598c-0.021-0.116,6.611,1.355,11.314,2.413   c0,0,2.42,0.56,5.958,1.205c-3.397-3.982-5.414-9.044-5.414-14.218c0-11.359,8.712-21.285,5.569-29.308   c3.059,0.249,6.331,6.456,6.552,16.161c3.252-4.494,4.613-12.701,4.613-17.733c0-5.21,3.433-11.262,6.867-11.469   c-3.061,5.045,0.793,9.37,4.219,20.099c1.285,4.03,1.121,10.812,2.113,15.113C63.797,33.534,65.333,20.5,71,16   c-2.5,5.667,0.37,12.758,2.333,16.167c3.167,5.5,5.087,9.667,5.087,17.548c0,5.284-1.951,10.259-5.242,14.148   c3.742-0.702,6.326-1.335,6.326-1.335l12.152-2.371C91.657,60.156,89.891,67.418,83.106,74.411z"
   id="path3"
   style="fill:#4d4d4f;fill-opacity:1" />
</g>
<path
   style="fill:#4d4d4f;fill-opacity:1;stroke:none;stroke-width:0.06337426"
   id="path4718-8"
   d="M 53.4484,51.296315 V 54.7819 h -3.485579 -3.485589 v 2.218098 2.2181 h 3.485589 3.485579 v 3.485584 3.485585 h 2.218109 2.218086 v -3.485585 -3.485584 h 3.485589 3.485585 V 56.999998 54.7819 H 61.370184 57.884595 V 51.296315 47.810732 H 55.666509 53.4484 Z"
   inkscape:connector-curvature="0" /></svg>