<?xml version="1.0" encoding="UTF-8" standalone="no"?>
<!-- Generator: Adobe Illustrator 16.0.0, SVG Export Plug-In . SVG Version: 6.00 Build 0)  -->

<svg
   xmlns:dc="http://purl.org/dc/elements/1.1/"
   xmlns:cc="http://creativecommons.org/ns#"
   xmlns:rdf="http://www.w3.org/1999/02/22-rdf-syntax-ns#"
   xmlns:svg="http://www.w3.org/2000/svg"
   xmlns="http://www.w3.org/2000/svg"
   xmlns:sodipodi="http://sodipodi.sourceforge.net/DTD/sodipodi-0.dtd"
   xmlns:inkscape="http://www.inkscape.org/namespaces/inkscape"
   version="1.1"
   id="Layer_1"
   x="0px"
   y="0px"
   width="256"
   height="256"
   viewBox="0 0 256 256"
   enable-background="new 0 0 115.333 114"
   xml:space="preserve"
   sodipodi:docname="promview_logo_grey.svg"
   inkscape:version="0.92.4 (5da689c313, 2019-01-14)"
   inkscape:export-filename="C:\Github-locals\PromVIEW\resource\promview_256.png"
   inkscape:export-xdpi="96"
   inkscape:export-ydpi="96"><metadata
   id="metadata12"><rdf:RDF><cc:Work
       rdf:about=""><dc:format>image/svg+xml</dc:format><dc:type
         rdf:resource="http://purl.org/dc/dcmitype/StillImage" /><dc:title></dc:title></cc:Work></rdf:RDF></metadata><defs
   id="defs10"><filter
     style="color-interpolation-filters:sRGB"
     inkscape:label="Invert"
     id="filter4591"><feColorMatrix
       type="hueRotate"
       values="180"
       result="color1"
       id="feColorMatrix4587" /><feColorMatrix
       values="-1 0 0 0 1 0 -1 0 0 1 0 0 -1 0 1 -0.21 -0.72 -0.07 2 0 "
       result="fbSourceGraphic"
       id="feColorMatrix4589" /><feColorMatrix
       result="fbSourceGraphicAlpha"
       in="fbSourceGraphic"
       values="0 0 0 -1 0 0 0 0 -1 0 0 0 0 -1 0 0 0 0 1 0"
       id="feColorMatrix4593" /><feColorMatrix
       id="feColorMatrix4595"
       type="hueRotate"
       values="180"
       result="color1"
       in="fbSourceGraphic" /><feColorMatrix
       id="feColorMatrix4597"
       values="-1 0 0 0 1 0 -1 0 0 1 0 0 -1 0 1 -0.21 -0.72 -0.07 2 0 "
       result="fbSourceGraphic" /><feColorMatrix
       result="fbSourceGraphicAlpha"
       in="fbSourceGraphic"
       values="0 0 0 -1 0 0 0 0 -1 0 0 0 0 -1 0 0 0 0 1 0"
       id="feColorMatrix4599" /><feColorMatrix
       id="feColorMatrix4601"
       type="hueRotate"
       values="180"
       result="color1"
       in="fbSourceGraphic" /><feColorMatrix
       id="feColorMatrix4603"
       values="-1 0 0 0 1 0 -1 0 0 1 0 0 -1 0 1 -0.21 -0.72 -0.07 2 0 "
       result="color2" /></filter></defs><sodipodi:namedview
   pagecolor="#ffffff"
   bordercolor="#666666"
   borderopacity="1"
   objecttolerance="10"
   gridtolerance="10"
   guidetolerance="10"
   inkscape:pageopacity="0"
   inkscape:pageshadow="2"
   inkscape:window-width="1469"
   inkscape:window-height="855"
   id="namedview8"
   showgrid="false"
   inkscape:zoom="1.4638351"
   inkscape:cx="156.58829"
   inkscape:cy="133.0807"
   inkscape:window-x="143"
   inkscape:window-y="30"
   inkscape:window-maximized="0"
   inkscape:current-layer="Layer_1"
   inkscape:snap-global="false" />
<ellipse
   style="fill:#ffdb01;fill-opacity:1;stroke:none;stroke-width:2.36257768;stroke-opacity:1"
   id="path4756"
   cx="128.13913"
   cy="127.04977"
   rx="124.39571"
   ry="123.25446" /><g
   id="g833"
   transform="matrix(0.05550312,0,0,-0.05550312,-272.89083,189.71479)"
   style="fill:#b8231f;fill-opacity:1;stroke:none;stroke-opacity:1;filter:url(#filter4591)" /><g
   id="Layer_2"
   transform="matrix(2.195225,0,0,2.195225,3.7434275,2.3310654)">
</g>
<g
   id="g5"
   style="fill:#4d4d4f;fill-opacity:1"
   transform="matrix(2.195225,0,0,2.195225,3.7434275,2.3310654)">
	<path
   d="M 56.667,0.667 C 25.372,0.667 0,26.036 0,57.332 c 0,31.295 25.372,56.666 56.667,56.666 31.295,0 56.666,-25.371 56.666,-56.666 0,-31.296 -25.372,-56.665 -56.666,-56.665 z m 0,106.055 c -8.904,0 -16.123,-5.948 -16.123,-13.283 H 72.79 c 0,7.334 -7.219,13.283 -16.123,13.283 z M 83.297,89.04 H 30.034 V 79.382 H 83.298 V 89.04 Z M 83.106,74.411 H 30.186 C 30.01,74.208 29.83,74.008 29.66,73.802 24.208,67.182 22.924,63.726 21.677,60.204 c -0.021,-0.116 6.611,1.355 11.314,2.413 0,0 2.42,0.56 5.958,1.205 -3.397,-3.982 -5.414,-9.044 -5.414,-14.218 0,-11.359 8.712,-21.285 5.569,-29.308 3.059,0.249 6.331,6.456 6.552,16.161 3.252,-4.494 4.613,-12.701 4.613,-17.733 0,-5.21 3.433,-11.262 6.867,-11.469 -3.061,5.045 0.793,9.37 4.219,20.099 1.285,4.03 1.121,10.812 2.113,15.113 C 63.797,33.534 65.333,20.5 71,16 c -2.5,5.667 0.37,12.758 2.333,16.167 3.167,5.5 5.087,9.667 5.087,17.548 0,5.284 -1.951,10.259 -5.242,14.148 3.742,-0.702 6.326,-1.335 6.326,-1.335 l 12.152,-2.371 c 10e-4,-10e-4 -1.765,7.261 -8.55,14.254 z"
   id="path3"
   style="fill:#4d4d4f;fill-opacity:1"
   inkscape:connector-curvature="0" />
</g>
<path
   style="fill:#4d4d4f;fill-opacity:1;stroke:none;stroke-width:0.13912076"
   id="path4718-8"
   d="m 121.07469,114.93801 v 7.65165 h -7.65164 -7.65165 v 4.86923 4.86923 h 7.65165 7.65164 v 7.65162 7.65167 h 4.86923 4.86921 v -7.65167 -7.65162 h 7.65165 7.65164 v -4.86923 -4.86923 h -7.65164 -7.65165 v -7.65165 -7.65163 h -4.86921 -4.86923 z"
   inkscape:connector-curvature="0" /></svg>